<svg width="48" height="48" viewBox="0 0 48 48" fill="none" xmlns="http://www.w3.org/2000/svg">
<path fill-rule="evenodd" clip-rule="evenodd" d="M24 0C37.2562 0 48 10.8092 48 24.1462C48 36.2004 39.225 46.189 27.75 48V31.1259L33.3422 31.1259L34.4062 24.1462L27.75 24.1462V19.6188C27.75 17.9476 28.4606 16.3124 30.6355 15.9297C30.9462 15.875 31.2867 15.8459 31.6594 15.8459C31.6594 15.8459 31.6594 15.8459 31.6595 15.8459L34.6875 15.8459L34.6875 15.8459V9.90371C34.6875 9.90371 34.6875 9.90371 34.6875 9.90371C34.6875 9.90371 31.9406 9.4321 29.3157 9.4321C28.2232 9.4321 27.2062 9.56478 26.278 9.8251C22.5466 10.8716 20.25 13.981 20.25 18.8265V24.1462L14.1562 24.1462L14.1562 24.1462V31.1259L14.1562 31.1259L20.25 31.1259V48C8.775 46.189 0 36.2005 0 24.1462C0 10.8092 10.7438 0 24 0Z" fill="#c6c6c6"/>
</svg>
