<svg width="48" height="48" viewBox="0 0 48 48" fill="none" xmlns="http://www.w3.org/2000/svg">
<path fill-rule="evenodd" clip-rule="evenodd" d="M24 0C10.7452 0 0 10.7452 0 24C0 37.2548 10.7452 48 24 48C37.2548 48 48 37.2548 48 24C48 10.7452 37.2548 0 24 0ZM24.0009 12C20.7418 12 20.3328 12.0142 19.0528 12.0725C17.7753 12.131 16.9033 12.3333 16.1403 12.63C15.351 12.9365 14.6815 13.3465 14.0145 14.0138C13.347 14.6807 12.937 15.3503 12.6295 16.1392C12.332 16.9025 12.1295 17.7747 12.072 19.0518C12.015 20.3318 12 20.741 12 24C12 27.259 12.0145 27.6667 12.0725 28.9468C12.1313 30.2243 12.3335 31.0963 12.63 31.8593C12.9368 32.6485 13.3468 33.318 14.014 33.985C14.6808 34.6525 15.3503 35.0635 16.139 35.37C16.9026 35.6668 17.7748 35.869 19.0521 35.9275C20.3321 35.9858 20.7408 36 23.9996 36C27.2589 36 27.6667 35.9858 28.9467 35.9275C30.2242 35.869 31.0972 35.6668 31.8607 35.37C32.6497 35.0635 33.3182 34.6525 33.985 33.985C34.6525 33.318 35.0625 32.6485 35.37 31.8595C35.665 31.0963 35.8675 30.224 35.9275 28.947C35.985 27.667 36 27.259 36 24C36 20.741 35.985 20.332 35.9275 19.052C35.8675 17.7745 35.665 16.9025 35.37 16.1395C35.0625 15.3502 34.6525 14.6807 33.985 14.0138C33.3175 13.3463 32.65 12.9362 31.86 12.63C31.095 12.3333 30.2224 12.131 28.9449 12.0725C27.6649 12.0142 27.2574 12 23.9974 12H24.0009ZM23.6003 14.1624H23.6009L24.0009 14.1625C27.2049 14.1625 27.5847 14.174 28.8499 14.2315C30.0199 14.285 30.6549 14.4805 31.0779 14.6448C31.638 14.8623 32.0372 15.1223 32.457 15.5423C32.877 15.9623 33.137 16.3622 33.355 16.9223C33.5192 17.3447 33.715 17.9797 33.7682 19.1497C33.8257 20.4147 33.8382 20.7948 33.8382 23.9972C33.8382 27.1998 33.8257 27.5798 33.7682 28.8448C33.7147 30.0147 33.5192 30.6498 33.355 31.0723C33.1375 31.6323 32.877 32.031 32.457 32.4508C32.037 32.8708 31.6382 33.1307 31.0779 33.3483C30.6554 33.5132 30.0199 33.7082 28.8499 33.7617C27.5849 33.8192 27.2049 33.8317 24.0009 33.8317C20.7966 33.8317 20.4168 33.8192 19.1518 33.7617C17.9818 33.7077 17.3468 33.5122 16.9236 33.348C16.3635 33.1305 15.9635 32.8705 15.5435 32.4505C15.1235 32.0305 14.8635 31.6315 14.6455 31.0713C14.4813 30.6488 14.2855 30.0138 14.2323 28.8438C14.1748 27.5788 14.1633 27.1988 14.1633 23.9943C14.1633 20.7898 14.1748 20.4118 14.2323 19.1468C14.2858 17.9768 14.4813 17.3417 14.6455 16.9187C14.863 16.3587 15.1235 15.9588 15.5435 15.5388C15.9635 15.1188 16.3635 14.8587 16.9236 14.6407C17.3466 14.4757 17.9818 14.2808 19.1518 14.227C20.2588 14.177 20.6878 14.162 22.9244 14.1595V14.1625C23.1329 14.1622 23.3572 14.1623 23.5992 14.1624H23.5997H23.6003ZM30.3806 16.1255C30.0958 16.1255 29.8174 16.21 29.5806 16.3682C29.3437 16.5265 29.1592 16.7514 29.0502 17.0146C28.9412 17.2777 28.9127 17.5673 28.9683 17.8466C29.0239 18.126 29.1611 18.3826 29.3626 18.5839C29.564 18.7853 29.8206 18.9224 30.1 18.9779C30.3794 19.0334 30.6689 19.0048 30.9321 18.8958C31.1952 18.7867 31.42 18.6021 31.5782 18.3652C31.7364 18.1283 31.8208 17.8498 31.8207 17.565C31.8207 16.77 31.1756 16.125 30.3806 16.125V16.1255ZM17.8125 23.9705C17.8125 20.5673 20.5718 17.808 23.9751 17.808C27.3784 17.808 30.1369 20.5673 30.1369 23.9705C30.1369 27.3738 27.3784 30.1318 23.9751 30.1318C20.5718 30.1318 17.8125 27.3738 17.8125 23.9705ZM27.9375 24C27.9375 26.1746 26.1746 27.9375 24 27.9375C21.8254 27.9375 20.0625 26.1746 20.0625 24C20.0625 21.8254 21.8254 20.0625 24 20.0625C26.1746 20.0625 27.9375 21.8254 27.9375 24Z" fill="#c6c6c6"/>
</svg>
