<svg width="48" height="48" viewBox="0 0 48 48" fill="none" xmlns="http://www.w3.org/2000/svg">
<path fill-rule="evenodd" clip-rule="evenodd" d="M24 0C10.7452 0 0 10.7452 0 24C0 37.2548 10.7452 48 24 48C37.2548 48 48 37.2548 48 24C48 10.7452 37.2548 0 24 0ZM24.7054 20.1854L24.6534 19.3203C24.4973 17.0782 25.8673 15.0303 28.0349 14.2359C28.8326 13.9534 30.1853 13.9181 31.0697 14.1653C31.4165 14.2712 32.0755 14.6243 32.5437 14.9421L33.3934 15.5247L34.3298 15.2245C34.8501 15.0656 35.5437 14.8008 35.8559 14.6243C36.1507 14.4654 36.4108 14.3771 36.4108 14.4301C36.4108 14.7302 35.7692 15.7542 35.2316 16.3191C34.5032 17.1135 34.7113 17.1842 36.1853 16.6545C37.0698 16.3544 37.0871 16.3544 36.9137 16.6898C36.8096 16.8664 36.2721 17.4843 35.6998 18.0492C34.7287 19.0202 34.6767 19.1261 34.6767 19.9382C34.6767 21.1917 34.087 23.8045 33.4974 25.2345C32.4049 27.9179 30.0639 30.6896 27.7228 32.0843C24.4279 34.0439 20.0406 34.5382 16.3469 33.3907C15.1156 33.0023 13 32.0137 13 31.8371C13 31.7842 13.6416 31.7136 14.422 31.6959C16.0521 31.6606 17.6822 31.2016 19.0695 30.3895L20.0059 29.8246L18.9307 29.4538C17.4047 28.9242 16.0347 27.7061 15.6879 26.5585C15.5839 26.1878 15.6185 26.1701 16.5897 26.1701L17.5955 26.1525L16.7457 25.7464C15.7399 25.2345 14.8208 24.3694 14.37 23.4867C14.0405 22.8512 13.6243 21.2446 13.7457 21.121C13.7804 21.0681 14.1445 21.174 14.5607 21.3152C15.7573 21.7566 15.9133 21.6507 15.2197 20.9092C13.9191 19.5675 13.5202 17.5725 14.1445 15.6835L14.4393 14.8361L15.5839 15.9837C17.9249 18.2964 20.6822 19.6734 23.8383 20.0794L24.7054 20.1854Z" fill="#c6c6c6"/>
</svg>
