<svg width="165" height="51" viewBox="0 0 165 51" fill="none" xmlns="http://www.w3.org/2000/svg">
<path d="M0.783746 29.7788C0.522497 29.7788 0.302498 29.7242 0.192499 29.615C0.0549997 29.5058 0 29.301 0 29.0143V8.13844C0 7.83807 0.0549997 7.64692 0.192499 7.5377C0.329998 7.42847 0.508747 7.37386 0.783746 7.37386H3.03873C3.51998 7.37386 3.82248 7.60596 3.90498 8.05652L4.13873 8.86206C4.77122 8.26132 5.52747 7.7698 6.42121 7.42847C7.31496 7.07349 8.22245 6.896 9.15745 6.896C11.1924 6.896 12.8012 7.63327 13.9974 9.12147C15.1937 10.6097 15.7849 12.6031 15.7849 15.1289C15.7849 16.8629 15.4824 18.3647 14.9187 19.6754C14.3274 20.9725 13.5299 21.9555 12.5262 22.6655C11.5224 23.3618 10.3674 23.7168 9.04745 23.7168C8.19495 23.7168 7.35621 23.5803 6.59996 23.3072C5.81622 23.0478 5.15622 22.6655 4.60622 22.174V29.0143C4.60622 29.301 4.55122 29.5058 4.44123 29.615C4.33123 29.7242 4.12498 29.7788 3.83623 29.7788H0.783746ZM7.68621 20.2489C8.8687 20.2489 9.73495 19.8529 10.2849 19.061C10.8349 18.2692 11.1237 17.0267 11.1237 15.3064C11.1237 13.5724 10.8624 12.3163 10.3124 11.5244C9.76245 10.7326 8.88245 10.3366 7.69996 10.3366C6.59996 10.3366 5.56872 10.6233 4.60622 11.1831V19.416C5.52747 19.9622 6.54496 20.2489 7.68621 20.2489Z" fill="#00A8E1"/>
<path d="M19.5793 23.334C19.318 23.334 19.098 23.2793 18.988 23.1428C18.8505 23.0063 18.7955 22.8288 18.7955 22.5557V8.15155C18.7955 7.85118 18.8505 7.66003 18.988 7.5508C19.1255 7.44158 19.3043 7.38696 19.5793 7.38696H21.8618C22.343 7.38696 22.6455 7.61907 22.728 8.06963L23.1405 9.76263C23.9793 8.83421 24.7768 8.19251 25.5193 7.79656C26.2618 7.40062 27.0592 7.20947 27.898 7.20947H28.338C28.6267 7.20947 28.8467 7.26409 28.9705 7.37331C29.108 7.48254 29.163 7.68734 29.163 7.97405V10.5955C29.163 10.8549 29.108 11.0733 28.998 11.1826C28.888 11.3191 28.6817 11.3737 28.393 11.3737C28.2417 11.3737 28.0492 11.3601 27.8292 11.3328C27.5955 11.3191 27.293 11.2918 26.963 11.2918C26.4818 11.2918 25.9043 11.3737 25.203 11.4966C24.5155 11.6331 23.9105 11.797 23.443 12.0018V22.5148C23.443 22.7742 23.388 22.9926 23.278 23.1019C23.168 23.2384 22.9618 23.293 22.673 23.293L19.5793 23.334Z" fill="#00A8E1"/>
<path d="M33.4953 4.88786C32.6978 4.88786 32.0516 4.65576 31.5841 4.23251C31.1028 3.7956 30.8691 3.19486 30.8691 2.44393C30.8691 1.693 31.1166 1.10591 31.5841 0.655356C32.0653 0.218452 32.6978 0 33.4953 0C34.2928 0 34.9391 0.232105 35.4066 0.655356C35.8878 1.09226 36.1216 1.693 36.1216 2.44393C36.1216 3.19486 35.8741 3.78195 35.4066 4.23251C34.9391 4.66941 34.2928 4.88786 33.4953 4.88786ZM31.9828 23.3334C31.7216 23.3334 31.5016 23.2788 31.3916 23.1423C31.2541 23.0057 31.1991 22.8282 31.1991 22.5552V8.15099C31.1991 7.85062 31.2541 7.65947 31.3916 7.55025C31.5291 7.44102 31.7078 7.38641 31.9828 7.38641H34.9941C35.2828 7.38641 35.4891 7.44102 35.5991 7.55025C35.7091 7.65947 35.7641 7.86427 35.7641 8.15099V22.5688C35.7641 22.8282 35.7091 23.0467 35.5991 23.1559C35.4891 23.2924 35.2828 23.3471 34.9941 23.3471H31.9828V23.3334Z" fill="#00A8E1"/>
<path d="M40.4224 23.3331C40.1612 23.3331 39.9412 23.2784 39.8312 23.1419C39.6937 23.0054 39.6387 22.8279 39.6387 22.5548V8.15065C39.6387 7.85028 39.6937 7.65913 39.8312 7.54991C39.9687 7.44068 40.1474 7.38607 40.4224 7.38607H42.7049C43.1862 7.38607 43.4887 7.61817 43.5712 8.06873L43.8187 8.91523C44.9324 8.17795 45.9224 7.67279 46.8299 7.37241C47.7236 7.07204 48.6311 6.92186 49.5799 6.92186C51.4774 6.92186 52.8111 7.57721 53.5811 8.91523C54.6399 8.20526 55.6711 7.68644 56.5924 7.38607C57.5136 7.0857 58.5311 6.9082 59.5348 6.9082C60.9923 6.9082 62.1473 7.3178 62.9448 8.137C63.7561 8.94254 64.1548 10.1031 64.1548 11.5503V22.5958C64.1548 22.8552 64.0998 23.0736 63.9898 23.1829C63.8798 23.3194 63.6736 23.374 63.3848 23.374H60.3736C60.1123 23.374 59.8923 23.3194 59.7823 23.1829C59.6723 23.0463 59.5898 22.8688 59.5898 22.5958V12.547C59.5898 11.1271 58.9436 10.4171 57.6786 10.4171C56.5374 10.4171 55.3961 10.6765 54.2411 11.2226V22.5821C54.2411 22.8415 54.1861 23.06 54.0761 23.1692C53.9661 23.3058 53.7599 23.3604 53.4711 23.3604H50.4599C50.1986 23.3604 49.9786 23.3058 49.8686 23.1692C49.7311 23.0327 49.6761 22.8552 49.6761 22.5821V12.547C49.6761 11.1271 49.0299 10.4171 47.7649 10.4171C46.5824 10.4171 45.4274 10.7038 44.2862 11.2636V22.5958C44.2862 22.8552 44.2312 23.0736 44.1212 23.1829C44.0112 23.3194 43.8049 23.374 43.5162 23.374L40.4224 23.3331Z" fill="#00A8E1"/>
<path d="M74.9756 23.8252C72.4181 23.8252 70.4519 23.2245 68.8844 21.6407C67.8531 20.603 66.8907 18.6643 66.8907 15.3602C66.8907 12.6841 67.7431 10.6498 69.1319 9.17526C70.5206 7.68706 72.6381 7.00439 74.6319 7.00439C77.1343 7.00439 78.6193 7.56418 79.7606 8.6974C79.9531 8.88854 81.0943 10.0491 81.0943 11.9332C81.0943 12.5749 81.1081 13.2576 80.6818 14.1997C80.3793 14.8414 79.9256 15.2373 79.7881 15.3465C77.9318 17.0395 74.2881 16.9303 73.0506 16.8484L71.0569 16.548C71.1944 17.927 71.5656 18.9919 72.4181 19.6063C73.2156 20.1934 74.0819 20.4119 75.8693 20.4119C76.7631 20.4119 77.9593 20.248 79.4993 19.8248C79.5818 19.8111 79.7468 19.7702 79.8018 19.7429C79.8431 19.7429 79.9943 19.7292 80.0906 19.7565C80.2556 19.8111 80.4481 19.9613 80.4481 20.4392V21.8728C80.4481 22.2141 80.4068 22.4326 80.3106 22.5691C80.2143 22.7056 80.0218 22.8285 79.7606 22.9514C78.1381 23.5521 76.6531 23.8252 74.9756 23.8252ZM76.9006 12.1107C76.9006 10.5815 75.8143 10.1446 74.4944 10.1446C73.6281 10.1446 72.7619 10.4587 72.1844 11.0867C71.6206 11.7148 71.2769 12.6295 71.1256 13.8174C71.1256 13.8174 73.4769 14.2543 75.1818 13.9675C76.0618 13.8174 76.9006 13.3258 76.9006 12.1107Z" fill="#00A8E1"/>
<path d="M140.786 23.8252C138.228 23.8252 136.262 23.2245 134.694 21.6407C133.663 20.603 132.701 18.6643 132.701 15.3602C132.701 12.6841 133.553 10.6498 134.942 9.17526C136.331 7.68706 138.448 7.00439 140.442 7.00439C142.944 7.00439 144.429 7.56418 145.571 8.6974C145.763 8.88854 146.904 10.0491 146.904 11.9332C146.904 12.5749 146.918 13.2576 146.492 14.1997C146.189 14.8414 145.736 15.2373 145.598 15.3465C143.742 17.0395 140.098 16.9303 138.861 16.8484L136.867 16.548C137.004 17.927 137.376 18.9919 138.228 19.6063C139.026 20.1934 139.892 20.4119 141.679 20.4119C142.573 20.4119 143.769 20.248 145.309 19.8248C145.392 19.8111 145.557 19.7702 145.612 19.7429C145.653 19.7429 145.804 19.7292 145.901 19.7565C146.066 19.8111 146.258 19.9613 146.258 20.4392V21.8728C146.258 22.2141 146.217 22.4326 146.121 22.5691C146.024 22.7056 145.832 22.8285 145.571 22.9514C143.948 23.5521 142.449 23.8252 140.786 23.8252ZM142.697 12.1107C142.697 10.5815 141.611 10.1446 140.291 10.1446C139.424 10.1446 138.558 10.4587 137.981 11.0867C137.417 11.7148 137.073 12.6295 136.922 13.8174C136.922 13.8174 139.273 14.2543 140.978 13.9675C141.858 13.8174 142.697 13.3258 142.697 12.1107Z" fill="#232F3E"/>
<path d="M94.9297 23.3307C94.7234 23.3307 94.5447 23.317 94.4209 23.2488C94.2834 23.1942 94.1734 23.1123 94.0772 23.003C93.9809 22.8938 93.8847 22.7163 93.8159 22.5115L88.426 8.5852C88.371 8.42136 88.316 8.27118 88.2747 8.1483C88.2335 8.01176 88.2197 7.90254 88.2197 7.80697C88.2197 7.49294 88.426 7.3291 88.8522 7.3291H91.9872C92.331 7.3291 92.5785 7.38371 92.7297 7.52025C92.881 7.65678 93.0184 7.86158 93.0872 8.1483L96.3322 19.2347L99.6321 8.1483C99.7146 7.84792 99.8384 7.64313 99.9896 7.52025C100.141 7.41102 100.388 7.3291 100.732 7.3291H103.785C104.197 7.3291 104.417 7.47929 104.417 7.80697C104.417 7.91619 104.403 8.03907 104.362 8.1483C104.321 8.28483 104.266 8.40771 104.211 8.5852L98.8209 22.5115C98.7384 22.7163 98.6559 22.8938 98.5597 23.003C98.4634 23.1123 98.3534 23.2078 98.2434 23.2488C98.1334 23.2897 97.9409 23.3307 97.7072 23.3307H94.9297Z" fill="#232F3E"/>
<path d="M108.693 4.88786C107.895 4.88786 107.249 4.65576 106.781 4.23251C106.3 3.7956 106.066 3.19486 106.066 2.44393C106.066 1.693 106.314 1.10591 106.781 0.655356C107.263 0.218452 107.895 0 108.693 0C109.49 0 110.136 0.232105 110.604 0.655356C111.085 1.09226 111.319 1.693 111.319 2.44393C111.319 3.19486 111.071 3.78195 110.604 4.23251C110.109 4.66941 109.49 4.88786 108.693 4.88786ZM107.166 23.3334C106.905 23.3334 106.685 23.2788 106.561 23.1423C106.424 23.0057 106.369 22.8282 106.369 22.5552V8.15099C106.369 7.85062 106.424 7.65947 106.561 7.55025C106.699 7.44102 106.878 7.38641 107.166 7.38641H110.178C110.466 7.38641 110.673 7.44102 110.783 7.55025C110.893 7.65947 110.948 7.86427 110.948 8.15099V22.5688C110.948 22.8282 110.893 23.0467 110.783 23.1559C110.673 23.2924 110.466 23.3471 110.178 23.3471H107.166V23.3334Z" fill="#232F3E"/>
<path d="M120.618 23.6731C119.257 23.6731 118.061 23.3181 117.057 22.6218C116.053 21.9255 115.269 20.9424 114.747 19.7136C114.211 18.4712 113.949 17.0376 113.949 15.4129C113.949 12.8324 114.582 10.7571 115.806 9.21429C117.043 7.67147 118.693 6.87958 120.714 6.87958C122.364 6.87958 123.808 7.35744 125.018 8.29952V0.981379C125.018 0.681007 125.073 0.489862 125.211 0.380636C125.348 0.27141 125.527 0.216797 125.816 0.216797H128.827C129.116 0.216797 129.322 0.27141 129.432 0.380636C129.542 0.489862 129.597 0.694661 129.597 0.981379V22.5535C129.597 22.8129 129.542 23.0314 129.432 23.1406C129.322 23.2771 129.116 23.3317 128.827 23.3317H126.297C126.049 23.3317 125.857 23.2771 125.706 23.1816C125.568 23.0723 125.472 22.8948 125.403 22.6491L125.211 21.9391C123.946 23.086 122.392 23.6731 120.618 23.6731ZM122.131 20.2461C123.134 20.2461 124.111 19.9457 125.032 19.386V11.1257C124.124 10.5933 123.093 10.3475 121.924 10.3475C120.811 10.3475 119.986 10.7571 119.436 11.59C118.886 12.4228 118.624 13.6652 118.624 15.3173C118.624 16.9966 118.913 18.2254 119.491 19.0446C120.041 19.8365 120.934 20.2461 122.131 20.2461Z" fill="#232F3E"/>
<path d="M157.025 23.8124C154.523 23.8124 152.57 23.0614 151.154 21.5732C149.751 20.085 149.05 18.0097 149.05 15.3337C149.05 12.6713 149.751 10.6233 151.154 9.13513C152.556 7.64693 154.509 6.896 157.025 6.896C159.541 6.896 161.48 7.64693 162.896 9.13513C164.299 10.6233 165 12.6986 165 15.3337C165 18.0097 164.299 20.085 162.896 21.5732C161.494 23.0614 159.528 23.8124 157.025 23.8124ZM157.025 20.3035C159.225 20.3035 160.325 18.6514 160.325 15.3337C160.325 12.0296 159.225 10.3912 157.025 10.3912C154.825 10.3912 153.725 12.0296 153.725 15.3337C153.725 18.6514 154.825 20.3035 157.025 20.3035Z" fill="#232F3E"/>
<path fill-rule="evenodd" clip-rule="evenodd" d="M40.0289 32.0294V32.2888C40.0702 32.5209 40.1802 32.7394 40.3864 32.9442C51.6201 43.7985 66.47 50.3248 82.9562 50.3248C94.7261 50.3248 108.394 46.3653 117.798 38.9243C119.352 37.6819 118.032 35.8387 116.437 36.5623C105.864 41.3682 94.3824 43.6893 83.9462 43.6893C68.4638 43.6893 53.4626 39.1428 41.3627 31.5925C41.1564 31.456 40.9502 31.4014 40.7577 31.4014C40.3727 31.4014 40.0839 31.6608 40.0289 32.0294Z" fill="#00A8E1"/>
<path fill-rule="evenodd" clip-rule="evenodd" d="M110.06 33.1915C109.716 33.4373 109.551 33.7376 109.51 33.9834V34.1336C109.551 34.4203 109.812 34.6114 110.293 34.5432C113.332 34.1472 120.083 33.3007 121.307 34.9391C122.517 36.5775 119.959 43.3632 118.846 46.3942C118.502 47.2953 119.244 47.6776 120.028 46.9813C125.102 42.4757 126.381 33.0413 125.363 31.6623C124.868 31.007 122.558 30.4062 119.671 30.4062C116.536 30.4199 112.837 31.1162 110.06 33.1915Z" fill="#00A8E1"/>
</svg>
