<svg xmlns="http://www.w3.org/2000/svg" width="155" height="49" viewBox="0 0 155 49"><defs><style>.a,.c{fill:#fff;}.a{stroke:#fff;stroke-miterlimit:10;stroke-width:0.2px;}.b{fill:#a6a6a6;}</style></defs><path class="a" d="M37.8,13.3v-6h1.8a3.11,3.11,0,0,1,2.2.8,2.86,2.86,0,0,1,.8,2.2,3.29,3.29,0,0,1-.8,2.2,2.86,2.86,0,0,1-2.2.8Zm.8-.7h1.1a2.11,2.11,0,0,0,1.6-.6,2.35,2.35,0,0,0,.6-1.7,2.35,2.35,0,0,0-.6-1.7A2.27,2.27,0,0,0,39.7,8H38.6Z"/><path class="a" d="M43.8,13.3v-6h.8v6Z"/><path class="a" d="M47.6,13.4a2.2,2.2,0,0,1-1.3-.4,2,2,0,0,1-.8-1.2l.7-.3a2.18,2.18,0,0,0,.5.8,1.5,1.5,0,0,0,1.8,0,1,1,0,0,0,.4-.7.91.91,0,0,0-.4-.8,2.26,2.26,0,0,0-1.1-.5,6.66,6.66,0,0,1-1.2-.6,1.28,1.28,0,0,1-.4-1,1.61,1.61,0,0,1,.5-1.1,1.9,1.9,0,0,1,1.3-.5,1.59,1.59,0,0,1,1.2.4,2.1,2.1,0,0,1,.6.8l-.7.3a1,1,0,0,0-.4-.5,1.08,1.08,0,0,0-.8-.2,2.35,2.35,0,0,0-.8.2.86.86,0,0,0-.3.6.86.86,0,0,0,.3.6,1.88,1.88,0,0,0,.9.4,4.88,4.88,0,0,1,.7.3,2.09,2.09,0,0,1,.6.4,1,1,0,0,1,.5.6,2.35,2.35,0,0,1,.2.8,1.88,1.88,0,0,1-.2.8,1.21,1.21,0,0,1-.5.5l-.6.3Z"/><path class="a" d="M51.5,13.3h-.8v-6h2a2.11,2.11,0,0,1,1.3.5,1.61,1.61,0,0,1,.6,1.3,1.76,1.76,0,0,1-.6,1.3,2.11,2.11,0,0,1-1.3.5H51.4v2.4Zm0-3.2h1.3a1.14,1.14,0,0,0,.8-.3,1.08,1.08,0,0,0,.3-.7,1.08,1.08,0,0,0-.3-.7.91.91,0,0,0-.8-.4H51.5Z"/><path class="a" d="M60.5,12.5a3.1,3.1,0,0,1-5.3-2.2,3.1,3.1,0,1,1,6.2,0A2.94,2.94,0,0,1,60.5,12.5ZM56.7,12a2.36,2.36,0,0,0,1.6.7,2,2,0,0,0,1.6-.7,2.41,2.41,0,0,0,.7-1.7,2.06,2.06,0,0,0-.7-1.7,2.36,2.36,0,0,0-1.6-.7,2,2,0,0,0-1.6.7,2.06,2.06,0,0,0-.7,1.7A2.06,2.06,0,0,0,56.7,12Z"/><path class="a" d="M62.5,13.3v-6h.9L66.3,12V7.3h.8v6h-.8L63.2,8.4v4.9Z"/><path class="a" d="M68.5,13.3v-6h.8v6Z"/><path class="a" d="M70.6,13.3v-6h2.2A1.71,1.71,0,0,1,74.5,9a2.35,2.35,0,0,1-.2.8,1,1,0,0,1-.6.5,1.79,1.79,0,0,1,.7.5,1.22,1.22,0,0,1,.3.9,1.66,1.66,0,0,1-.5,1.2,2.11,2.11,0,0,1-1.3.5H70.6Zm.8-3.4h1.4a.91.91,0,0,0,.7-.3.86.86,0,0,0,.3-.6.86.86,0,0,0-.3-.6.75.75,0,0,0-.7-.4H71.4Zm0,2.7H73a1,1,0,0,0,1-1,1.08,1.08,0,0,0-.3-.7.91.91,0,0,0-.7-.3H71.5v2Z"/><path class="a" d="M75.8,13.3v-6h.8v5.3h2.6v.7Z"/><path class="a" d="M83.6,8H80.9V9.9h2.5v.7H80.9v1.9h2.7v.7H80.1v-6h3.5Z"/><path class="a" d="M88.3,13.4A2.2,2.2,0,0,1,87,13a2,2,0,0,1-.8-1.2l.7-.3a2.18,2.18,0,0,0,.5.8,1.5,1.5,0,0,0,1.8,0,1,1,0,0,0,.4-.7.91.91,0,0,0-.4-.8,2.26,2.26,0,0,0-1.1-.5,6.66,6.66,0,0,1-1.2-.6,1.28,1.28,0,0,1-.4-1A1.61,1.61,0,0,1,87,7.6a1.9,1.9,0,0,1,1.3-.5,1.59,1.59,0,0,1,1.2.4,2.1,2.1,0,0,1,.6.8l-.7.3a1,1,0,0,0-.4-.5,1.08,1.08,0,0,0-.8-.2,2.35,2.35,0,0,0-.8.2.86.86,0,0,0-.3.6.86.86,0,0,0,.3.6,1.88,1.88,0,0,0,.9.4,4.88,4.88,0,0,1,.7.3,2.09,2.09,0,0,1,.6.4,1,1,0,0,1,.5.6,1.7,1.7,0,0,1,0,1.6,1.21,1.21,0,0,1-.5.5l-.6.3Z"/><path class="a" d="M93.5,13.4a1.86,1.86,0,0,1-1.6-.7,2.35,2.35,0,0,1-.6-1.7V7.3H92v3.8a1.59,1.59,0,0,0,.4,1.2,1.25,1.25,0,0,0,1.1.4,1.37,1.37,0,0,0,1.1-.4,2.14,2.14,0,0,0,.4-1.2V7.3h.8v3.8a2.35,2.35,0,0,1-.6,1.7A2.52,2.52,0,0,1,93.5,13.4Z"/><path class="a" d="M96.9,13.3v-6h2a2.11,2.11,0,0,1,1.3.5,1.61,1.61,0,0,1,.6,1.3,1.5,1.5,0,0,1-.4,1.1,2.07,2.07,0,0,1-1,.6l1.7,2.4h-.9l-1.6-2.4h-.9v2.4h-.8Zm.8-3.2h1.2A1,1,0,0,0,100,9a.91.91,0,0,0-.3-.7A.78.78,0,0,0,99,8H97.7Z"/><path class="b" d="M143.3,0H9.3A19.48,19.48,0,0,0,6.8.2,9,9,0,0,0,4.5,1a14.29,14.29,0,0,0-2,1.4,6.61,6.61,0,0,0-1.4,2A6.81,6.81,0,0,0,.3,6.8,19.42,19.42,0,0,0,.1,9.2V39.7a22.86,22.86,0,0,0,.2,2.5,6.31,6.31,0,0,0,.8,2.3,14.29,14.29,0,0,0,1.4,2,5.58,5.58,0,0,0,2,1.4,9,9,0,0,0,2.3.8,10.07,10.07,0,0,0,2.5.3H145.7a19.42,19.42,0,0,0,2.4-.2,6.31,6.31,0,0,0,2.3-.8,14.29,14.29,0,0,0,2-1.4,7.49,7.49,0,0,0,1.5-2,9,9,0,0,0,.8-2.3,19.48,19.48,0,0,0,.2-2.5V9.3a22.86,22.86,0,0,0-.2-2.5,6.31,6.31,0,0,0-.8-2.3,8,8,0,0,0-3.4-3.4,9,9,0,0,0-2.3-.8,19.42,19.42,0,0,0-2.4-.2h-1.1a7.08,7.08,0,0,0-1.4-.1Z"/><path d="M10.4,47.9H9.3A17.85,17.85,0,0,1,7,47.7,4.79,4.79,0,0,1,5,47a6.57,6.57,0,0,1-1.7-1.2,6.57,6.57,0,0,1-1.2-1.7,11.76,11.76,0,0,1-.7-2,17.85,17.85,0,0,1-.2-2.3V9.2a17.85,17.85,0,0,1,.2-2.3,4.79,4.79,0,0,1,.7-2A6.57,6.57,0,0,1,3.3,3.2,5.23,5.23,0,0,1,5,2a11.76,11.76,0,0,1,2-.7,17.85,17.85,0,0,1,2.3-.2H145.7a17.85,17.85,0,0,1,2.3.2,4.79,4.79,0,0,1,2,.7,7.23,7.23,0,0,1,3,3,11.76,11.76,0,0,1,.7,2,17.85,17.85,0,0,1,.2,2.3V39.7a17.85,17.85,0,0,1-.2,2.3,4.79,4.79,0,0,1-.7,2,6.57,6.57,0,0,1-1.2,1.7,10.92,10.92,0,0,1-1.7,1.3,6.79,6.79,0,0,1-2,.7,17.85,17.85,0,0,1-2.3.2H10.4Z"/><path class="c" d="M30.4,24.9a6,6,0,0,1,2.9-5.1,5.93,5.93,0,0,0-4.9-2.6c-2.1-.2-4,1.2-5.1,1.2s-2.7-1.2-4.4-1.2a6.53,6.53,0,0,0-5.5,3.3C11,24.6,12.8,30.7,15.1,34c1.1,1.6,2.5,3.4,4.2,3.4s2.3-1.1,4.4-1.1,2.6,1.1,4.4,1,3-1.6,4.1-3.3a16.88,16.88,0,0,0,1.9-3.8A5.68,5.68,0,0,1,30.4,24.9Z"/><path class="c" d="M27,15a6,6,0,0,0,1.4-4.3,6.42,6.42,0,0,0-3.9,2,5.57,5.57,0,0,0-1.4,4.1A4.84,4.84,0,0,0,27,15Z"/><path class="c" d="M43.7,18V11.7H41.4v-1h5.7v1H44.8V18Z"/><path class="c" d="M52.4,16.5A2.3,2.3,0,0,1,50,18.1a2.62,2.62,0,0,1-2.6-2.4v-.4a2.58,2.58,0,0,1,2.2-2.9H50c1.5,0,2.5,1,2.5,2.8v.4H48.6v.1a1.46,1.46,0,0,0,1.3,1.6H50a1.21,1.21,0,0,0,1.3-.7Zm-3.8-1.8h2.8a1.27,1.27,0,0,0-1.2-1.4h-.1A1.39,1.39,0,0,0,48.6,14.7Zm.8-3.1,1.3-1.7H52l-1.4,1.7Z"/><path class="c" d="M54,10.3h1.1V18H54Z"/><path class="c" d="M61.5,16.5a2.3,2.3,0,0,1-2.4,1.6,2.62,2.62,0,0,1-2.6-2.4v-.4a2.58,2.58,0,0,1,2.2-2.9h.4c1.5,0,2.5,1,2.5,2.8v.4H57.7v.1A1.46,1.46,0,0,0,59,17.3h.1a1.21,1.21,0,0,0,1.3-.7Zm-3.8-1.8h2.8a1.27,1.27,0,0,0-1.2-1.4h-.1A1.39,1.39,0,0,0,57.7,14.7Zm.8-3.1,1.3-1.7H61l-1.4,1.7Z"/><path class="c" d="M66.7,14.3a1.13,1.13,0,0,0-1.3-.9c-.9,0-1.5.7-1.5,1.9s.6,1.9,1.5,1.9a1.13,1.13,0,0,0,1.3-.9h1.1a2.15,2.15,0,0,1-2.4,1.9,2.55,2.55,0,0,1-2.6-2.4v-.4A2.49,2.49,0,0,1,65,12.6h.4a2.21,2.21,0,0,1,2.4,1.9Z"/><path class="c" d="M69.2,10.3h1.1v3h.1a1.76,1.76,0,0,1,1.7-1A1.74,1.74,0,0,1,74,14v4H72.9V14.7c0-.9-.4-1.3-1.2-1.3a1.32,1.32,0,0,0-1.4,1.2V18H69.2Z"/><path class="c" d="M75.3,16.4c0-1,.7-1.6,2.1-1.6l1.5-.1v-.5c0-.6-.4-.9-1.1-.9s-1,.2-1.1.6H75.6a2.08,2.08,0,0,1,2.3-1.6c1.4,0,2.2.7,2.2,1.9V18h-1v-.8H79a2,2,0,0,1-1.7.9,1.67,1.67,0,0,1-1.8-1.5C75.3,16.6,75.3,16.5,75.3,16.4Zm3.5-.4v-.5l-1.3.1c-.8.1-1.1.3-1.1.8s.4.8,1,.8A1.4,1.4,0,0,0,78.8,16Z"/><path class="c" d="M81.6,12.5h1v.8h.1a1.35,1.35,0,0,1,1.5-.9h.5v1.1c-.2,0-.4-.1-.6-.1a1.32,1.32,0,0,0-1.4,1.2V18H81.6Z"/><path class="c" d="M85.7,18.6h1.1c.1.4.6.7,1.3.7.9,0,1.4-.4,1.4-1.2V17h-.1a1.68,1.68,0,0,1-1.7.9c-1.4,0-2.3-1.1-2.3-2.7s.9-2.8,2.3-2.8a1.76,1.76,0,0,1,1.7,1h.1v-.9h1V18c0,1.3-1,2.1-2.5,2.1C86.7,20.1,85.8,19.5,85.7,18.6Zm3.9-3.4c0-1.1-.6-1.8-1.5-1.8s-1.5.7-1.5,1.8.5,1.8,1.5,1.8S89.6,16.3,89.6,15.2Z"/><path class="c" d="M97,16.5a2.3,2.3,0,0,1-2.4,1.6A2.62,2.62,0,0,1,92,15.7v-.4a2.58,2.58,0,0,1,2.2-2.9h.4c1.5,0,2.5,1,2.5,2.8v.4H93.2v.1a1.46,1.46,0,0,0,1.3,1.6h.1a1.21,1.21,0,0,0,1.3-.7H97Zm-3.8-1.8H96a1.27,1.27,0,0,0-1.2-1.4h-.1A1.45,1.45,0,0,0,93.2,14.7Z"/><path class="c" d="M98.6,12.5h1v.8h.1a1.35,1.35,0,0,1,1.5-.9h.5v1.1c-.2,0-.4-.1-.6-.1a1.32,1.32,0,0,0-1.4,1.2V18H98.6Z"/><path class="c" d="M105.6,15.2c0-1.7.9-2.8,2.3-2.8a1.76,1.76,0,0,1,1.7,1h.1v-3h1.1V18h-1v-.9h-.1a2.06,2.06,0,0,1-1.7,1C106.5,18.1,105.6,17,105.6,15.2Zm1.1,0c0,1.2.6,1.9,1.5,1.9s1.5-.7,1.5-1.9-.6-1.9-1.5-1.9A1.72,1.72,0,0,0,106.7,15.2Z"/><path class="c" d="M112.2,16.4c0-1,.7-1.6,2.1-1.6l1.5-.1v-.5c0-.6-.4-.9-1.1-.9s-1,.2-1.1.6h-1.1a2.08,2.08,0,0,1,2.3-1.6c1.4,0,2.2.7,2.2,1.9V18h-1v-.8h-.1a2,2,0,0,1-1.7.9,1.67,1.67,0,0,1-1.8-1.5C112.2,16.6,112.2,16.5,112.2,16.4Zm3.6-.4v-.5l-1.3.1c-.8.1-1.1.3-1.1.8s.4.8,1,.8A1.48,1.48,0,0,0,115.8,16Z"/><path class="c" d="M118.5,12.5h1v.9h.1a1.86,1.86,0,0,1,3.5.7V18H122V14.7c0-.9-.4-1.3-1.2-1.3a1.24,1.24,0,0,0-1.3,1.2V18h-1.1Z"/><path class="c" d="M126.9,12.4c1.2,0,2.1.6,2.2,1.6h-1a1,1,0,0,0-1.1-.7c-.6,0-1.1.3-1.1.7s.3.5.9.7l.9.2q1.5.3,1.5,1.5c0,1-1,1.7-2.3,1.7s-2.2-.6-2.3-1.6h1.1a1.09,1.09,0,0,0,1.2.7c.7,0,1.2-.3,1.2-.7s-.3-.5-.8-.7l-1-.2q-1.5-.3-1.5-1.5C124.8,13.1,125.7,12.4,126.9,12.4Z"/><path class="c" d="M43.2,22.1h2.3V37.3H43.2Z"/><path class="c" d="M48.2,27.7l1.2-5.6h2.2l-1.5,5.6Z"/><path class="c" d="M60.2,33.2H54.4L53,37.3H50.5L56,22.1h2.6l5.5,15.2H61.6ZM55,31.3h4.6l-2.3-6.7h-.1Z"/><path class="c" d="M76,31.8c0,3.4-1.8,5.7-4.6,5.7a3.86,3.86,0,0,1-3.5-1.9h-.1V41H65.5V26.2h2.2V28a4,4,0,0,1,3.5-2C74.1,26.1,76,28.4,76,31.8Zm-2.4,0c0-2.2-1.2-3.7-2.9-3.7s-2.9,1.5-2.9,3.7,1.2,3.7,2.9,3.7S73.6,34.1,73.6,31.8Z"/><path class="c" d="M88.2,31.8c0,3.4-1.8,5.7-4.6,5.7a3.86,3.86,0,0,1-3.5-1.9H80V41H77.7V26.2h2.2V28a4,4,0,0,1,3.5-2C86.3,26.1,88.2,28.4,88.2,31.8Zm-2.4,0c0-2.2-1.2-3.7-2.9-3.7S80,29.6,80,31.8s1.2,3.7,2.9,3.7S85.8,34.1,85.8,31.8Z"/><path class="c" d="M96.2,33.1c.2,1.5,1.6,2.5,3.6,2.5s3.3-1,3.3-2.3-.8-1.9-2.8-2.4l-2-.5c-2.8-.7-4.1-2-4.1-4.1,0-2.6,2.3-4.4,5.5-4.4s5.4,1.8,5.5,4.4H103c-.1-1.5-1.4-2.4-3.2-2.4s-3.1.9-3.1,2.3c0,1.1.8,1.7,2.8,2.2l1.7.4c3.1.7,4.4,2,4.4,4.2,0,2.8-2.3,4.6-5.9,4.6-3.4,0-5.6-1.7-5.8-4.5Z"/><path class="c" d="M110.5,23.6v2.6h2.1V28h-2.1v6.1c0,.9.4,1.4,1.3,1.4a1.48,1.48,0,0,0,.7-.1v1.8a5.28,5.28,0,0,1-1.3.1c-2.2,0-3.1-.8-3.1-3V28h-1.6V26.2h1.6V23.6Z"/><path class="c" d="M113.8,31.8c0-3.5,2.1-5.7,5.3-5.7s5.3,2.2,5.3,5.7-2,5.7-5.3,5.7S113.8,35.3,113.8,31.8Zm8.2,0c0-2.4-1.1-3.8-2.9-3.8s-2.9,1.4-2.9,3.8,1.1,3.8,2.9,3.8S122,34.2,122,31.8Z"/><path class="c" d="M126.2,26.2h2.2v1.9h.1a2.6,2.6,0,0,1,2.7-2,2.2,2.2,0,0,1,.8.1v2.1a3.4,3.4,0,0,0-1-.1,2.26,2.26,0,0,0-2.4,2.2v7h-2.3Z"/><path class="c" d="M142.4,34.1c-.3,2-2.3,3.4-4.8,3.4-3.2,0-5.2-2.2-5.2-5.6s2-5.7,5.1-5.7,5,2.1,5,5.5v.8h-7.8v.1a2.83,2.83,0,0,0,2.6,3.1h.4a2.57,2.57,0,0,0,2.6-1.6Zm-7.7-3.3h5.5a2.61,2.61,0,0,0-2.5-2.8h-.2a2.68,2.68,0,0,0-2.8,2.8Z"/></svg>