<svg enable-background="new 0 0 363.2 145" viewBox="0 0 363.2 145" xmlns="http://www.w3.org/2000/svg"><path d="m79.1 3.8h207v44.9h-207z" fill="#fff"/><path d="m132.7 19.1c0-.1-.1-.1 0 0 0-.1-.1-.1-.1 0l-4.6 10.3c-.1.1 0 .2 0 .2s0 0 .3 0h6.7.1s0 0 0-.2zm75.5-.1c0-.1-.1-.1-.1-.1s0 0-.1.2l-4.5 10.3c-.1.3 0 .4 0 .4s.1.1.2.1h6.7.1s0 0 0-.2z"/><path d="m73.7 0v54.5h218v-54.5zm36.3 34.8-1.3 7.4c0 .4-.2.6-.2.6s-.2.2-.5.3c-4.4 1.8-9.4 1.2-9.4 1.2-8-.9-13-5.7-14.6-12-2.4-9.4 2.4-16.1 3.5-17.5 2.8-3.3 7.2-5.7 11.5-6.3 3.8-.5 7.6-.2 11.2 1.1 0 0 1.8.6 3.2 1.5.7.5.8.6.8.6s0 .1-.1.8l-1.3 6.8c-.1.3-.2.4-.2.4s-.1 0-.7-.4c-4.1-2.9-9-2.6-9-2.6-3.7.2-8 2.2-9.3 7-1.1 4.3 0 7.9 2.6 10.1 1.7 1.5 4.5 2.3 7.3 2.2 3.1-.2 5.6-1.5 5.4-1.4 0 0 .1 0 .3-.1.6-.3.8-.3.8-.3s.1.2 0 .6zm36.4 8.5s0 0-.1 0h-8.2c-.2 0-.3-.1-.3-.1s0 0-.1-.4l-1.3-5.3c0-.1-.1-.2-.1-.2h-11.7c-.2 0-.4.2-.4.2s-.2.1-.3.5l-2.3 4.9c-.1.2-.1.2-.1.2s-.1.1-.3.1h-9.5c-.3 0-.3-.1-.3-.1s-.1-.1 0-.3l16.5-33.2c.1-.2.2-.2.2-.2h10.9c.2 0 .3.1.3.1s0 0 .1.2l7.1 33.2c0 .3-.1.4-.1.4zm36.9.1s0 0-.3 0h-8.7s0 0-.1-.1l-11.7-20.7c-.1-.1-.1-.1-.1-.1s-.1 0-.1.1l-2.9 20.3c0 .2-.1.3-.1.3s-.1 0-.2 0h-8.4c-.1 0-.2-.1-.2-.1s-.2-.2-.1-.4l4.6-32.9c0-.2.1-.2.1-.2s.1-.1.3-.1h9.3c.1 0 .2.1.2.1s.1 0 .1.2l10.5 18.5c.2.4.3.3.3.3s.1 0 .2-.4l2.7-18.4c0-.1.1-.2.1-.2s0-.1.2-.1l8.8.1h.2s0 0 0 .1l-4.7 33.2c.1.3 0 .5 0 .5zm39.4 0s0 0-.1 0h-8.4c-.2.1-.3-.1-.3-.1s0 0-.1-.3l-1.1-5.2c0-.1-.1-.3-.2-.4 0 0-.2-.1-.5-.1h-11c-.2 0-.4.1-.4.1s-.2.2-.3.4l-2.5 5.3c0 .1-.1.2-.1.2s-.2 0-.3 0h-9.5c-.2 0-.3-.1-.3-.1s0-.1.1-.3l16.7-33.3c.1 0 .2-.2.2-.2s.1 0 .4 0h10.4c.2 0 .4.1.4.1s.1 0 .1.2l7 33.4c-.2.3-.2.3-.2.3zm24-.4c0 .3-.1.4-.1.4s0 .1-.3.1h-19c-.5 0-.7-.1-.7-.1s-.1-.2 0-.6l4.7-32.6c0-.4.1-.5.1-.5h9.1.3s0 .1 0 .3l-3.5 25.5c0 .3.1.3.1.3s.1 0 .5 0h9.4c.2 0 .3.1.3.1s0 0 0 .3zm36.6-13.2c0 .1-.1.2-.1.2s0 .1-.2.1h-11.8c-.2 0-.3.1-.3.1s-.1 0-.1.3v12.5c0 .2-.1.2-.1.2s0 .1-.2.1h-9.3c-.1 0-.2-.1-.2-.1s0 0 0-.3v-12.4c0-.1-.1-.2-.1-.2s-.1-.1-.2-.1h-12.1c-.2 0-.3 0-.3 0s-.1-.1-.1-.4v-9.2c0-.1.1-.2.1-.2s0 0 .1 0h12.3.1s.1 0 .1-.1v-11c0-.1 0-.2 0-.2s.1 0 .4 0h9.2.2s.1.1.1.3v11h12 .4s.1 0 .1.3z"/><path d="m51 75.1 8.8-16.5s-10.5-8.7-26.3-8.7-31.5 15.2-31.8 30 15 22 23.7 24.7 15.7 7.3 14 12.7c-1.7 5.3-11.8 7.7-19.8 3.7s-10-6.3-10-6.3l-9.6 16.3s13 12.2 30 12.2 34.6-14.4 34.6-31.2-14.2-22.5-21.8-25.3c-7.7-2.8-18.3-4.3-14-13.5 4.2-9.3 22.2 1.9 22.2 1.9zm22.7-14.8h8v-2.7h30.8v2.7h6.2v17.5h-24v14.2h24v16.5h-23.8v14.2h23.8v16.5h-45zm134.5 0h20.7v78.8h-20.7zm37 0h44.8v17.7h-23.7v14h23.7v16.3h-23.7v14.3h23.7v16.5h-44.8zm104.4 16.6 8.8-16.5s-10.5-8.7-26.3-8.7-31.5 15.2-31.8 30 15 22 23.7 24.7 15.7 7.3 14 12.7c-1.7 5.3-11.8 7.7-19.8 3.7s-10-6.3-10-6.3l-9.6 16.3s13 12.2 30 12.2 34.6-14.4 34.6-31.2-14.2-22.5-21.8-25.3c-7.7-2.8-18.3-4.3-14-13.5 4.2-9.3 22.2 1.9 22.2 1.9zm-173.4 30.2s17-.3 16.8-23-23.5-23.8-23.5-23.8h-34.5v78.8h20.7v-29l19.5 29h25.2c-.1 0-24.2-32-24.2-32zm-20.4-11.3v-19.5s15.7-3.3 15.8 9.8c.2 13-15.8 9.7-15.8 9.7z" fill="#eb2230"/></svg>