<svg xmlns="http://www.w3.org/2000/svg" xmlns:xlink="http://www.w3.org/1999/xlink" width="163.78" height="49" viewBox="0 0 163.78 49"><defs><style>.a{fill:#a6a6a6;}.b,.i,.j{fill:#fff;}.c{fill:url(#a);}.d{fill:url(#b);}.e{fill:url(#c);}.f{fill:url(#d);}.g{opacity:0.2;}.g,.h,.i{isolation:isolate;}.h{opacity:0.12;}.i{opacity:0.25;}.j{stroke:#fff;stroke-miterlimit:10;stroke-width:0.2px;}</style><linearGradient id="a" x1="26.48" y1="577" x2="6.1" y2="597.37" gradientTransform="translate(0 -566)" gradientUnits="userSpaceOnUse"><stop offset="0" stop-color="#00a0ff"/><stop offset="0.01" stop-color="#00a1ff"/><stop offset="0.26" stop-color="#00beff"/><stop offset="0.51" stop-color="#00d2ff"/><stop offset="0.76" stop-color="#00dfff"/><stop offset="1" stop-color="#00e3ff"/></linearGradient><linearGradient id="b" x1="41.07" y1="590.68" x2="11.7" y2="590.68" gradientTransform="translate(0 -566)" gradientUnits="userSpaceOnUse"><stop offset="0" stop-color="#ffe000"/><stop offset="0.41" stop-color="#ffbd00"/><stop offset="0.78" stop-color="orange"/><stop offset="1" stop-color="#ff9c00"/></linearGradient><linearGradient id="c" x1="30.14" y1="593.48" x2="2.51" y2="621.11" gradientTransform="translate(0 -566)" gradientUnits="userSpaceOnUse"><stop offset="0" stop-color="#ff3a44"/><stop offset="1" stop-color="#c31162"/></linearGradient><linearGradient id="d" x1="8.84" y1="566.64" x2="21.18" y2="578.98" gradientTransform="translate(0 -566)" gradientUnits="userSpaceOnUse"><stop offset="0" stop-color="#32a071"/><stop offset="0.07" stop-color="#2da771"/><stop offset="0.48" stop-color="#15cf74"/><stop offset="0.8" stop-color="#06e775"/><stop offset="1" stop-color="#00f076"/></linearGradient></defs><path d="M157.85,49H6a6,6,0,0,1-6-6V6.5a6,6,0,0,1,6-6H157.75a6,6,0,0,1,6,6V42.87A6,6,0,0,1,157.85,49Z"/><path class="a" d="M157.85,1.42a5.08,5.08,0,0,1,5.08,5.08V42.87a5.08,5.08,0,0,1-5.08,5.07H6A5.07,5.07,0,0,1,1,42.87V6.5A5.08,5.08,0,0,1,6,1.42H157.85m0-1.06H6A6.12,6.12,0,0,0,0,6.5V42.87a6,6,0,0,0,6,6H157.75a6,6,0,0,0,6-6V6.5A6,6,0,0,0,157.85.36Z"/><path class="b" d="M82.68,26.8A5.18,5.18,0,1,0,87.86,32,5.12,5.12,0,0,0,82.68,26.8Zm0,8.35a3,3,0,0,1-3-3.17,3,3,0,1,1,5.92,0A3.07,3.07,0,0,1,82.68,35.15ZM71.37,26.8A5.18,5.18,0,1,0,76.55,32,5.12,5.12,0,0,0,71.37,26.8Zm0,8.35a3,3,0,0,1-3-3.17,3,3,0,1,1,5.92,0A3.08,3.08,0,0,1,71.37,35.15ZM57.94,28.38V30.6h5.29a4.14,4.14,0,0,1-1.17,2.75,5.28,5.28,0,0,1-4,1.59,5.82,5.82,0,0,1,0-11.63A5.32,5.32,0,0,1,62,24.89l1.58-1.58a7.51,7.51,0,0,0-5.49-2.22,8,8,0,1,0,0,16.07,7.06,7.06,0,0,0,7.5-7.3,5.84,5.84,0,0,0-.1-1.37H57.94Zm55,1.69a4.72,4.72,0,0,0-4.44-3.27A4.93,4.93,0,0,0,103.62,32a5.1,5.1,0,0,0,5.07,5.18A5.39,5.39,0,0,0,113,34.83l-1.8-1.16a3.08,3.08,0,0,1-2.54,1.48,2.66,2.66,0,0,1-2.54-1.59L113,30.71Zm-7,1.8a2.78,2.78,0,0,1,2.75-3,1.87,1.87,0,0,1,1.9,1.06Zm-5.6,5h2.22V21.62h-2.22ZM96.64,28h0a3.93,3.93,0,0,0-2.75-1.16,5.18,5.18,0,0,0,0,10.36A3.55,3.55,0,0,0,96.64,36h.1v.74c0,2-1,3.06-2.75,3.06A3,3,0,0,1,91.35,38l-2,.85a4.93,4.93,0,0,0,4.55,3.07c2.64,0,4.86-1.59,4.86-5.4v-9.3H96.64ZM94,35.15a2.9,2.9,0,0,1-2.85-3.07A3,3,0,0,1,94,28.91a2.91,2.91,0,0,1,2.75,3.17A2.88,2.88,0,0,1,94,35.15ZM123.6,21.62h-5.39V36.84h2.22V31.13h3.17a4.76,4.76,0,1,0,0-9.51Zm0,7.4h-3.17V23.84h3.17a2.61,2.61,0,0,1,2.64,2.64A2.58,2.58,0,0,1,123.6,29Zm14.06-2.22a4.15,4.15,0,0,0-4,2.32l2,.85a2.22,2.22,0,0,1,2.12-1.16,2.32,2.32,0,0,1,2.43,1.9v.21a5.21,5.21,0,0,0-2.33-.63c-2.11,0-4.33,1.16-4.33,3.38a3.57,3.57,0,0,0,3.8,3.38,3.1,3.1,0,0,0,2.86-1.48h.1v1.17h2.22V30.92A4.56,4.56,0,0,0,137.66,26.8Zm-.32,8.35c-.74,0-1.79-.42-1.79-1.27,0-1.16,1.26-1.59,2.43-1.59a4.21,4.21,0,0,1,2.11.53A2.83,2.83,0,0,1,137.34,35.15Zm12.9-8-2.64,6.56h-.11l-2.64-6.56h-2.43l4,9.2-2.33,5.08h2.33l6.23-14.28Zm-20.4,9.73h2.22V21.62h-2.22Z"/><path class="c" d="M12.69,9.56a2.68,2.68,0,0,0-.53,1.69V38.11a2.47,2.47,0,0,0,.53,1.69l.1.11,15-15v-.42L12.69,9.56Z"/><path class="d" d="M32.78,29.86l-5-5v-.42l5-5,.1.11L38.8,23c1.69,1,1.69,2.54,0,3.49l-5.92,3.38Z"/><path class="e" d="M32.88,29.86l-5.07-5.07-15.12,15c.53.64,1.48.64,2.54.11l17.65-10"/><path class="f" d="M32.88,19.61,15.23,9.46a1.89,1.89,0,0,0-2.54.1L27.81,24.68Z"/><path class="g" d="M32.78,29.76l-17.66,10a2,2,0,0,1-2.43,0h0l.1.11h0a2,2,0,0,0,2.44,0l17.65-10Z"/><path class="h" d="M12.69,39.7a2.71,2.71,0,0,1-.53-1.7v.22a2.47,2.47,0,0,0,.53,1.69V39.7Z"/><path class="h" d="M38.91,26.27l-6.13,3.49.1.1,5.92-3.38a2.24,2.24,0,0,0,1.27-1.8h0A1.9,1.9,0,0,1,38.91,26.27Z"/><path class="i" d="M15.23,9.67,38.91,23.1a2.3,2.3,0,0,1,1.27,1.58h0a2.28,2.28,0,0,0-1.27-1.8L15.23,9.46c-1.7-1-3.07-.21-3.07,1.79v.22C12.05,9.46,13.53,8.72,15.23,9.67Z"/><path class="j" d="M43.67,14.32V8h1.9a3.3,3.3,0,0,1,2.33.84,3.06,3.06,0,0,1,.84,2.33,3.5,3.5,0,0,1-.84,2.32,3,3,0,0,1-2.33.85Zm.84-.74h1.17A2.25,2.25,0,0,0,47.37,13a2.52,2.52,0,0,0,.63-1.8,2.5,2.5,0,0,0-.63-1.8,2.43,2.43,0,0,0-1.69-.63H44.51Z"/><path class="j" d="M50,14.32V8h.74v6.34Z"/><path class="j" d="M54,14.43A2.33,2.33,0,0,1,52.65,14a2.06,2.06,0,0,1-.84-1.27l.74-.31a2.15,2.15,0,0,0,.53.84,1.69,1.69,0,0,0,1,.32,1.72,1.72,0,0,0,.95-.32,1.06,1.06,0,0,0,.42-.74,1,1,0,0,0-.42-.84,2.32,2.32,0,0,0-1.16-.53,6.2,6.2,0,0,1-1.27-.64,1.33,1.33,0,0,1-.43-1,1.74,1.74,0,0,1,.53-1.17A2.06,2.06,0,0,1,54,7.77a1.68,1.68,0,0,1,1.27.42,2.28,2.28,0,0,1,.63.84l-.74.32a1.06,1.06,0,0,0-.42-.53,1.15,1.15,0,0,0-.85-.21,2.53,2.53,0,0,0-.84.21,1.5,1.5,0,0,0-.22.74.94.94,0,0,0,.32.64,2,2,0,0,0,1,.42,4.93,4.93,0,0,1,.74.32,2,2,0,0,1,.64.42A1.13,1.13,0,0,1,56,12a2.65,2.65,0,0,1,.21.85,2.13,2.13,0,0,1-.21.85,1.26,1.26,0,0,1-.53.52l-.64.32A2.72,2.72,0,0,0,54,14.43Z"/><path class="j" d="M58.15,14.32h-.84V8h2.11a2.19,2.19,0,0,1,1.37.53,1.67,1.67,0,0,1,.64,1.37,1.83,1.83,0,0,1-.64,1.37,2.19,2.19,0,0,1-1.37.53H58.15Zm0-3.38h1.38a1.2,1.2,0,0,0,.84-.32,1.15,1.15,0,0,0,.32-.74,1.15,1.15,0,0,0-.32-.74,1,1,0,0,0-.84-.42H58.15Z"/><path class="j" d="M67.67,13.47a3.28,3.28,0,0,1-5.61-2.32,3.28,3.28,0,1,1,6.56,0A3.11,3.11,0,0,1,67.67,13.47Zm-4-.52a2.51,2.51,0,0,0,1.69.74A2.12,2.12,0,0,0,67,13a2.54,2.54,0,0,0,.74-1.8A2.18,2.18,0,0,0,67,9.35a2.49,2.49,0,0,0-1.69-.74,2.1,2.1,0,0,0-1.69.74,2.56,2.56,0,0,0-.74,1.8A2.19,2.19,0,0,0,63.65,13Z"/><path class="j" d="M69.78,14.32V8h1l3.07,5h0V8h.85v6.34H73.8L70.52,9.14h0v5.18Z"/><path class="j" d="M76.13,14.32V8H77v6.34Z"/><path class="j" d="M78.35,14.32V8h2.32a1.75,1.75,0,0,1,1.27.53,1.35,1.35,0,0,1,.53,1.16,2.53,2.53,0,0,1-.21.84,1.05,1.05,0,0,1-.64.53h0a1.93,1.93,0,0,1,.74.53,1.3,1.3,0,0,1,.32.95,1.75,1.75,0,0,1-.53,1.27,2.19,2.19,0,0,1-1.37.53Zm.84-3.59h1.48a1,1,0,0,0,.74-.32.92.92,0,0,0,.32-.64.92.92,0,0,0-.32-.63.79.79,0,0,0-.74-.42H79.19Zm0,2.85h1.69a1.09,1.09,0,0,0,1.06-1.06,1.15,1.15,0,0,0-.32-.74,1,1,0,0,0-.74-.31H79.3v2.11Z"/><path class="j" d="M83.84,14.32V8h.74v5.6h2.75v.74Z"/><path class="j" d="M92.09,8.72H89.24v2h2.64v.74H89.24v2h2.85v.74h-3.7V7.87h3.7Z"/><path class="j" d="M97.06,14.43A2.3,2.3,0,0,1,95.69,14a2.08,2.08,0,0,1-.85-1.27l.74-.31a2.41,2.41,0,0,0,.53.84,1.57,1.57,0,0,0,1.9,0,1.06,1.06,0,0,0,.42-.74,1,1,0,0,0-.42-.84,2.32,2.32,0,0,0-1.16-.53,6.48,6.48,0,0,1-1.27-.64,1.32,1.32,0,0,1-.42-1,1.7,1.7,0,0,1,.53-1.17,2,2,0,0,1,1.37-.52,1.68,1.68,0,0,1,1.27.42A2.17,2.17,0,0,1,99,9l-.74.32a1.06,1.06,0,0,0-.42-.53A1.15,1.15,0,0,0,97,8.61a2.66,2.66,0,0,0-.84.21.94.94,0,0,0-.32.64.92.92,0,0,0,.32.63,2,2,0,0,0,1,.42,6.23,6.23,0,0,1,.74.32,2.31,2.31,0,0,1,.63.42,1.05,1.05,0,0,1,.53.64,1.81,1.81,0,0,1,0,1.69,1.23,1.23,0,0,1-.53.53l-.63.32Z"/><path class="j" d="M102.56,14.43a2,2,0,0,1-1.69-.74,2.48,2.48,0,0,1-.64-1.8V8h.85v4a1.66,1.66,0,0,0,.42,1.27,1.3,1.3,0,0,0,1.16.43,1.46,1.46,0,0,0,1.17-.43,2.26,2.26,0,0,0,.42-1.27V8h.85v4a2.5,2.5,0,0,1-.64,1.8A3.17,3.17,0,0,1,102.56,14.43Z"/><path class="j" d="M106.15,14.32V8h2.12a2.19,2.19,0,0,1,1.37.53,1.7,1.7,0,0,1,.64,1.37,1.57,1.57,0,0,1-.43,1.16,2.17,2.17,0,0,1-1,.64h0l1.79,2.53h-1L108,11.68h-1v2.53h-.85Zm.85-3.38h1.27a1.1,1.1,0,0,0,1.16-1.17,1,1,0,0,0-.32-.74,1.2,1.2,0,0,0-.84-.31h-1.38v2.22Z"/></svg>