<svg width="18px" height="12px" viewBox="0 0 18 12" version="1.1" xmlns="http://www.w3.org/2000/svg" xmlns:xlink="http://www.w3.org/1999/xlink"><g stroke="none" stroke-width="1" fill="none" fill-rule="evenodd"><g transform="translate(-1.000000, -1.000000)" fill="#FFFFFF"><g transform="translate(9.888889, 6.937500) rotate(90.000000) translate(-9.888889, -6.937500) translate(3.888889, -2.062500)"><g transform="translate(-0.000000, 0.000000)"><g transform="translate(5.625000, 9.000000) scale(-1, 1) translate(-5.625000, -9.000000) translate(0.125000, 0.000000)"><path d="M7.79510672,8.88888889 L0.296143372,1.77606161 C-0.0987144718,1.40153567 -0.0987144718,0.794309222 0.296143372,0.419783333 C0.691001272,0.0452573889 1.33119242,0.0452573889 1.72605032,0.419783333 L9.82885652,8.10536039 C10.0545896,8.31947011 10.1512752,8.609631 10.1189134,8.88888889 C10.1512752,9.16814678 10.0545896,9.45830761 9.82885652,9.67241739 L1.72605032,17.3579945 C1.33119242,17.7325204 0.691001272,17.7325204 0.296143372,17.3579945 C-0.0987144718,16.9834685 -0.0987144718,16.3762421 0.296143372,16.0017161 L7.79510672,8.88888889 Z" transform="translate(5.062500, 8.888889) scale(-1, 1) translate(-5.062500, -8.888889) "/></g></g></g></g></g></svg>